{
	"asset":{
		"generator":"Khronos glTF Blender I/O v3.6.28",
		"version":"2.0"
	},
	"scene":0,
	"scenes":[
		{
			"name":"Scene",
			"nodes":[
				6
			]
		}
	],
	"nodes":[
		{
			"mesh":0,
			"name":"Object_2",
			"scale":[
				4,
				4,
				4
			]
		},
		{
			"mesh":1,
			"name":"Object_3",
			"scale":[
				4,
				5,
				4
			]
		},
		{
			"mesh":2,
			"name":"Object_4",
			"rotation":[
				0.19513778388500214,
				0,
				0,
				0.9807758331298828
			],
			"translation":[
				0,
				0.33166709542274475,
				-0.051023438572883606
			]
		},
		{
			"mesh":3,
			"name":"Object_5",
			"rotation":[
				0.19513778388500214,
				0,
				0,
				0.9807758331298828
			],
			"translation":[
				0,
				0.33166709542274475,
				-0.051023438572883606
			]
		},
		{
			"mesh":4,
			"name":"Object_6",
			"rotation":[
				0.19513778388500214,
				0,
				0,
				0.9807758331298828
			],
			"translation":[
				0,
				0.33166709542274475,
				-0.051023438572883606
			]
		},
		{
			"children":[
				0,
				1,
				2,
				3,
				4
			],
			"name":"teletuffy.OBJ.cleaner.materialmerger.gles"
		},
		{
			"children":[
				5
			],
			"name":"Sketchfab_model",
			"rotation":[
				-0.70710688829422,
				0,
				0,
				0.7071066498756409
			],
			"translation":[
				0,
				20.15972900390625,
				0
			]
		}
	],
	"materials":[
		{
			"doubleSided":true,
			"name":"defaultMat.001",
			"pbrMetallicRoughness":{
				"metallicFactor":0,
				"roughnessFactor":0.6000000238418579
			}
		}
	],
	"meshes":[
		{
			"name":"Object_0.001",
			"primitives":[
				{
					"attributes":{
						"COLOR_0":0,
						"POSITION":1,
						"NORMAL":2,
						"TEXCOORD_0":3
					},
					"indices":4,
					"material":0
				}
			]
		},
		{
			"name":"Object_1.001",
			"primitives":[
				{
					"attributes":{
						"COLOR_0":5,
						"POSITION":6,
						"NORMAL":7,
						"TEXCOORD_0":8
					},
					"indices":9,
					"material":0
				}
			]
		},
		{
			"name":"Object_2.001",
			"primitives":[
				{
					"attributes":{
						"COLOR_0":10,
						"POSITION":11,
						"NORMAL":12,
						"TEXCOORD_0":13
					},
					"indices":14,
					"material":0
				}
			]
		},
		{
			"name":"Object_3.001",
			"primitives":[
				{
					"attributes":{
						"COLOR_0":15,
						"POSITION":16,
						"NORMAL":17,
						"TEXCOORD_0":18
					},
					"indices":19,
					"material":0
				}
			]
		},
		{
			"name":"Object_4.001",
			"primitives":[
				{
					"attributes":{
						"COLOR_0":20,
						"POSITION":21,
						"NORMAL":22,
						"TEXCOORD_0":23
					},
					"indices":24,
					"material":0
				}
			]
		}
	],
	"accessors":[
		{
			"bufferView":0,
			"componentType":5123,
			"count":33669,
			"normalized":true,
			"type":"VEC4"
		},
		{
			"bufferView":1,
			"componentType":5126,
			"count":33669,
			"max":[
				2.0793697834014893,
				1.2251994609832764,
				0.018579060211777687
			],
			"min":[
				-2.0793697834014893,
				-0.3141729533672333,
				-5.048894882202148
			],
			"type":"VEC3"
		},
		{
			"bufferView":2,
			"componentType":5126,
			"count":33669,
			"type":"VEC3"
		},
		{
			"bufferView":3,
			"componentType":5126,
			"count":33669,
			"type":"VEC2"
		},
		{
			"bufferView":4,
			"componentType":5123,
			"count":196968,
			"type":"SCALAR"
		},
		{
			"bufferView":5,
			"componentType":5123,
			"count":9787,
			"normalized":true,
			"type":"VEC4"
		},
		{
			"bufferView":6,
			"componentType":5126,
			"count":9787,
			"max":[
				0.6743617653846741,
				0.9879361987113953,
				-2.2085132598876953
			],
			"min":[
				-0.6743617653846741,
				-0.12385082244873047,
				-3.0666935443878174
			],
			"type":"VEC3"
		},
		{
			"bufferView":7,
			"componentType":5126,
			"count":9787,
			"type":"VEC3"
		},
		{
			"bufferView":8,
			"componentType":5126,
			"count":9787,
			"type":"VEC2"
		},
		{
			"bufferView":9,
			"componentType":5123,
			"count":54906,
			"type":"SCALAR"
		},
		{
			"bufferView":10,
			"componentType":5123,
			"count":36974,
			"normalized":true,
			"type":"VEC4"
		},
		{
			"bufferView":11,
			"componentType":5126,
			"count":36974,
			"max":[
				0.7285373210906982,
				0.7597765326499939,
				0.699544370174408
			],
			"min":[
				-0.7285373210906982,
				-0.5629960894584656,
				-0.5580543875694275
			],
			"type":"VEC3"
		},
		{
			"bufferView":12,
			"componentType":5126,
			"count":36974,
			"type":"VEC3"
		},
		{
			"bufferView":13,
			"componentType":5126,
			"count":36974,
			"type":"VEC2"
		},
		{
			"bufferView":14,
			"componentType":5123,
			"count":219720,
			"type":"SCALAR"
		},
		{
			"bufferView":15,
			"componentType":5123,
			"count":16258,
			"normalized":true,
			"type":"VEC4"
		},
		{
			"bufferView":16,
			"componentType":5126,
			"count":16258,
			"max":[
				0.3858324885368347,
				-0.13764676451683044,
				0.27747148275375366
			],
			"min":[
				-0.3858324885368347,
				-0.39908933639526367,
				0.01602886989712715
			],
			"type":"VEC3"
		},
		{
			"bufferView":17,
			"componentType":5126,
			"count":16258,
			"type":"VEC3"
		},
		{
			"bufferView":18,
			"componentType":5126,
			"count":16258,
			"type":"VEC2"
		},
		{
			"bufferView":19,
			"componentType":5123,
			"count":96768,
			"type":"SCALAR"
		},
		{
			"bufferView":20,
			"componentType":5123,
			"count":5980,
			"normalized":true,
			"type":"VEC4"
		},
		{
			"bufferView":21,
			"componentType":5126,
			"count":5980,
			"max":[
				0.426630437374115,
				0.1991570144891739,
				1.3394795656204224
			],
			"min":[
				-0.2713445723056793,
				0.09092666208744049,
				0.6187402009963989
			],
			"type":"VEC3"
		},
		{
			"bufferView":22,
			"componentType":5126,
			"count":5980,
			"type":"VEC3"
		},
		{
			"bufferView":23,
			"componentType":5126,
			"count":5980,
			"type":"VEC2"
		},
		{
			"bufferView":24,
			"componentType":5123,
			"count":33312,
			"type":"SCALAR"
		}
	],
	"bufferViews":[
		{
			"buffer":0,
			"byteLength":269352,
			"byteOffset":0,
			"target":34962
		},
		{
			"buffer":0,
			"byteLength":404028,
			"byteOffset":269352,
			"target":34962
		},
		{
			"buffer":0,
			"byteLength":404028,
			"byteOffset":673380,
			"target":34962
		},
		{
			"buffer":0,
			"byteLength":269352,
			"byteOffset":1077408,
			"target":34962
		},
		{
			"buffer":0,
			"byteLength":393936,
			"byteOffset":1346760,
			"target":34963
		},
		{
			"buffer":0,
			"byteLength":78296,
			"byteOffset":1740696,
			"target":34962
		},
		{
			"buffer":0,
			"byteLength":117444,
			"byteOffset":1818992,
			"target":34962
		},
		{
			"buffer":0,
			"byteLength":117444,
			"byteOffset":1936436,
			"target":34962
		},
		{
			"buffer":0,
			"byteLength":78296,
			"byteOffset":2053880,
			"target":34962
		},
		{
			"buffer":0,
			"byteLength":109812,
			"byteOffset":2132176,
			"target":34963
		},
		{
			"buffer":0,
			"byteLength":295792,
			"byteOffset":2241988,
			"target":34962
		},
		{
			"buffer":0,
			"byteLength":443688,
			"byteOffset":2537780,
			"target":34962
		},
		{
			"buffer":0,
			"byteLength":443688,
			"byteOffset":2981468,
			"target":34962
		},
		{
			"buffer":0,
			"byteLength":295792,
			"byteOffset":3425156,
			"target":34962
		},
		{
			"buffer":0,
			"byteLength":439440,
			"byteOffset":3720948,
			"target":34963
		},
		{
			"buffer":0,
			"byteLength":130064,
			"byteOffset":4160388,
			"target":34962
		},
		{
			"buffer":0,
			"byteLength":195096,
			"byteOffset":4290452,
			"target":34962
		},
		{
			"buffer":0,
			"byteLength":195096,
			"byteOffset":4485548,
			"target":34962
		},
		{
			"buffer":0,
			"byteLength":130064,
			"byteOffset":4680644,
			"target":34962
		},
		{
			"buffer":0,
			"byteLength":193536,
			"byteOffset":4810708,
			"target":34963
		},
		{
			"buffer":0,
			"byteLength":47840,
			"byteOffset":5004244,
			"target":34962
		},
		{
			"buffer":0,
			"byteLength":71760,
			"byteOffset":5052084,
			"target":34962
		},
		{
			"buffer":0,
			"byteLength":71760,
			"byteOffset":5123844,
			"target":34962
		},
		{
			"buffer":0,
			"byteLength":47840,
			"byteOffset":5195604,
			"target":34962
		},
		{
			"buffer":0,
			"byteLength":66624,
			"byteOffset":5243444,
			"target":34963
		}
	],
	"buffers":[
		{
			"byteLength":5310068,
			"uri":"evilTeletubby.bin"
		}
	]
}
